<?xml version="1.0" standalone="no"?>
<!DOCTYPE svg PUBLIC "-//W3C//DTD SVG 20010904//EN"
 "http://www.w3.org/TR/2001/REC-SVG-20010904/DTD/svg10.dtd">
<svg version="1.0" xmlns="http://www.w3.org/2000/svg"
 width="150.000000pt" height="150.000000pt" viewBox="0 0 150.000000 150.000000"
 preserveAspectRatio="xMidYMid meet">
<metadata>
Created by potrace 1.14, written by Peter Selinger 2001-2017
</metadata>
<g transform="translate(0.000000,150.000000) scale(0.100000,-0.100000)"
fill="#000000" stroke="none">
<path d="M905 1393 c-17 -9 -43 -27 -58 -42 -24 -22 -27 -31 -22 -58 4 -20 2
-33 -5 -33 -5 0 -10 -5 -10 -11 0 -6 -11 -20 -25 -31 -27 -21 -30 -34 -15 -58
8 -13 16 -12 56 10 46 24 47 24 63 5 15 -19 106 -51 95 -34 -3 5 -13 9 -22 9
-15 0 -15 2 -2 10 11 7 5 10 -22 10 -25 0 -37 4 -35 13 1 9 -16 11 -67 9 -59
-2 -67 0 -56 13 6 8 20 17 30 20 10 3 20 14 23 24 2 10 13 20 24 23 17 4 20 0
21 -25 0 -18 8 -35 19 -41 22 -13 103 -25 97 -14 -3 4 -17 8 -32 9 l-27 1 25
8 c14 4 20 8 13 9 -6 1 -9 10 -6 20 6 24 -26 44 -48 30 -20 -13 -29 -11 -29 5
0 16 21 26 56 26 18 0 28 -9 38 -32 16 -37 28 -73 25 -73 -1 0 3 -10 9 -22 7
-12 14 -39 17 -61 5 -37 3 -39 -19 -37 -14 2 -29 6 -34 9 -5 3 -26 -4 -48 -16
-21 -12 -59 -27 -84 -34 -25 -7 -36 -13 -24 -13 19 -1 21 -7 22 -62 1 -33 -2
-68 -6 -79 -12 -30 -102 -98 -179 -135 -40 -19 -90 -50 -111 -70 -31 -28 -41
-32 -46 -20 -3 8 -15 15 -27 15 -21 0 -21 -1 -6 -18 27 -29 20 -35 -13 -10
-21 15 -26 24 -18 29 8 5 0 19 -26 43 -38 37 -56 45 -56 25 0 -20 -20 2 -21
24 -1 17 -2 18 -6 5 -10 -40 -43 -5 -69 74 -14 44 -18 48 -47 48 -31 0 -31 0
-9 -16 15 -10 22 -25 22 -47 l-1 -32 -19 36 c-10 20 -30 43 -44 52 -13 9 -32
34 -42 56 -9 22 -24 42 -33 45 -9 4 -29 14 -44 22 -16 9 -31 13 -34 10 -3 -3
-6 -148 -7 -324 -1 -239 2 -323 11 -334 8 -8 9 -18 4 -24 -5 -5 -12 -82 -15
-171 l-6 -163 74 0 c61 0 82 5 117 25 36 20 185 75 205 75 3 0 2 -4 -1 -10 -3
-5 27 8 67 29 157 85 508 137 667 100 62 -14 190 -75 197 -93 3 -8 -4 -29 -16
-46 l-22 -31 -33 29 c-64 57 -136 84 -232 88 l-88 3 85 -10 c153 -18 301 -113
223 -143 -9 -4 -23 0 -32 8 -33 29 -78 44 -146 50 l-70 6 65 -14 c36 -8 81
-21 100 -30 19 -9 27 -14 16 -11 -110 31 -278 42 -401 27 -45 -6 -20 -8 100
-8 132 0 175 -4 248 -22 70 -17 117 -22 228 -22 l139 0 0 55 c0 43 -3 55 -16
55 -8 0 -12 5 -9 10 4 6 11 8 16 5 5 -4 9 83 9 219 0 257 7 239 -89 210 -39
-11 -56 -12 -66 -4 -9 7 -20 8 -32 2 -10 -5 -33 -12 -50 -15 l-33 -6 7 77 c3
42 12 83 20 90 7 7 13 22 13 32 0 10 3 26 6 35 5 13 8 14 15 3 7 -11 9 -11 9
1 0 10 4 11 13 3 9 -8 11 2 9 45 -2 30 0 59 6 65 5 5 7 27 5 49 -5 37 -4 39
22 39 l28 0 -20 23 c-16 16 -22 37 -24 82 -2 72 -11 90 -48 109 -36 19 -38 48
-2 40 24 -6 23 -3 -12 26 -21 18 -36 35 -33 38 11 11 -17 32 -58 43 -33 9 -37
13 -22 19 18 6 18 7 -5 13 -13 4 -34 7 -47 7 -13 0 -35 6 -50 14 -43 22 -113
26 -147 9z m47 -151 c-7 -2 -10 -7 -7 -12 3 -5 -3 -7 -12 -6 -9 2 -19 9 -21
16 -3 9 1 11 12 7 9 -4 16 -2 16 4 0 6 5 7 12 3 9 -6 9 -9 0 -12z m-879 -287
c10 -14 13 -26 7 -30 -5 -3 -16 8 -25 25 -18 36 -7 39 18 5z m65 -99 c4 -35
-14 -26 -20 9 -4 16 -1 24 6 22 6 -2 12 -16 14 -31z m795 -75 c46 -54 67 -108
60 -161 -5 -33 -8 -39 -13 -25 -7 18 -4 -129 4 -249 3 -48 3 -49 -14 -26 -12
17 -23 21 -36 16 -18 -7 -17 -9 6 -22 14 -9 17 -13 7 -10 -10 3 -31 6 -46 6
-31 0 -29 -9 -48 188 -4 44 -9 59 -15 50 -6 -8 -8 8 -4 47 15 168 15 176 -4
71 -11 -60 -21 -110 -23 -112 -8 -8 -115 -28 -165 -30 -29 -1 -59 -8 -67 -14
-20 -17 -19 -7 5 40 11 22 18 40 16 40 -10 0 -48 -72 -67 -126 -11 -33 -38
-85 -60 -117 -23 -32 -42 -68 -44 -80 -2 -12 -9 -41 -16 -64 -6 -24 -9 -48 -6
-55 8 -22 7 -33 -2 -33 -5 0 -13 -3 -17 -7 -13 -14 -24 -8 -24 13 0 16 4 19
21 14 15 -5 19 -4 14 5 -4 7 -18 9 -36 5 -16 -4 -29 -5 -29 -3 1 16 62 175 79
203 11 20 27 66 35 104 20 96 36 129 96 194 54 59 76 75 111 82 11 2 55 28 99
59 64 44 80 51 83 38 2 -10 8 2 12 25 l7 42 26 -37 c13 -20 38 -53 55 -71z
m-543 -98 c0 -24 -25 -9 -28 17 -3 21 -2 22 12 11 9 -7 16 -20 16 -28z m819
-103 c-3 -47 -12 -118 -18 -159 -6 -41 -9 -88 -5 -106 5 -27 2 -33 -16 -38
-12 -3 -19 -10 -16 -15 3 -5 -1 -15 -8 -21 -19 -16 -30 2 -20 32 6 19 5 20
-10 8 -14 -12 -16 -11 -16 10 0 13 7 46 15 73 8 27 13 51 11 54 -3 2 -8 -9
-13 -24 -5 -22 -10 -5 -19 76 -11 94 -10 107 5 124 20 25 4 15 -58 -31 -24
-19 -46 -32 -48 -29 -9 9 8 77 18 71 5 -4 15 -3 22 2 6 4 30 8 52 8 22 0 46 4
53 8 7 5 12 3 12 -5 0 -7 14 2 32 19 18 18 33 31 33 30 1 -1 -2 -40 -6 -87z
m-149 -45 c-7 -8 -17 -12 -22 -9 -5 3 -1 15 9 26 20 22 32 6 13 -17z m-231
-26 c6 -18 11 -35 11 -39 0 -16 -102 -32 -153 -26 -28 4 -49 4 -45 1 4 -4 29
-10 57 -14 l50 -6 -25 -60 c-15 -33 -29 -80 -34 -104 -11 -65 -58 -85 -79 -33
-9 22 -9 35 0 55 7 15 16 27 21 27 9 0 11 94 2 127 -4 16 -17 23 -47 29 l-41
6 23 19 c14 12 40 19 65 19 22 1 66 7 96 15 81 20 87 19 99 -16z m-392 -5 c-3
-3 -12 -4 -19 -1 -8 3 -5 6 6 6 11 1 17 -2 13 -5z m-282 -94 c3 -5 19 -10 35
-10 33 0 48 -26 19 -33 -21 -6 -26 -26 -6 -28 6 -1 -6 -5 -27 -9 -47 -9 -74 8
-58 36 5 9 7 25 5 35 -6 20 21 27 32 9z m-85 -29 c0 -6 -4 -13 -10 -16 -5 -3
-10 1 -10 9 0 9 5 16 10 16 6 0 10 -4 10 -9z m340 -1 c0 -5 -10 -10 -22 -10
-19 0 -20 -2 -8 -10 11 -7 8 -10 -16 -10 -39 0 -49 9 -26 26 20 16 72 18 72 4z
m220 -6 c0 -17 -10 -22 -31 -17 -28 8 -24 31 6 29 14 0 25 -6 25 -12z m171
-13 c-9 -6 -5 -14 18 -30 17 -12 31 -26 31 -31 0 -8 -87 16 -100 27 -2 2 9 15
25 28 17 13 32 21 35 19 2 -3 -1 -9 -9 -13z m73 -88 c-7 -27 -20 -43 -36 -43
-15 0 -8 24 14 47 28 29 30 29 22 -4z m119 9 c40 -17 35 -40 -8 -40 -25 0 -35
5 -36 17 -1 14 -2 14 -6 -1 -6 -22 -63 -25 -63 -4 0 36 12 47 49 43 20 -2 48
-9 64 -15z m227 -34 c7 -19 9 -19 9 -5 1 27 18 11 23 -21 l4 -29 -50 16 c-64
19 -62 17 -41 41 24 26 43 25 55 -2z m150 -58 c0 -12 -28 -25 -36 -17 -9 9 6
27 22 27 8 0 14 -5 14 -10z m-1020 -75 c0 -15 -26 -32 -36 -23 -2 3 -2 13 2
22 8 20 34 21 34 1z"/>
<path d="M910 1130 c0 -20 13 -39 22 -34 6 4 5 10 -3 16 -10 7 -8 8 9 5 12 -3
20 -2 17 3 -7 11 -45 20 -45 10z"/>
<path d="M825 1119 c-29 -8 -28 -8 6 -4 20 2 42 -2 48 -8 8 -8 11 -8 11 0 0 9
-27 26 -33 22 -1 -1 -15 -5 -32 -10z"/>
<path d="M770 1061 c0 -11 4 -22 9 -25 4 -3 6 6 3 19 -5 30 -12 33 -12 6z"/>
<path d="M263 25 c-17 -7 -34 -11 -36 -8 -3 3 -14 0 -24 -6 -35 -20 39 -12 77
9 41 22 30 26 -17 5z"/>
<path d="M355 15 c-47 -12 -48 -13 -15 -14 19 0 58 6 85 13 47 13 48 14 15 14
-19 0 -57 -6 -85 -13z"/>
</g>
</svg>
